#!OML:ASF X:\für Bonn\!DataBase\2005_08_12_Daniel\c3d\Daniel.ASF
:FULLY-SPECIFIED
:DEGREES
3473
root 3.03498 17.5679 -1.65782 -40.0919 -82.3139 393.238
lowerback 10.281 -1.48863 -4.33388
upperback 1.51084 -2.67376 -2.80372
thorax -4.12729 -1.31434 -0.117077
lowerneck 1.44795 3.37631 -2.663
upperneck 9.32507 4.32192 1.02513
head 2.61895 2.02131 0.85296
rclavicle -4.72859e-014 -1.23246e-014
rhumerus -27.8429 -3.36548 -6.99573
rradius 19.8775
rwrist 2.69748
rhand -21.3557 6.70557
rfingers 7.12502
rthumb 5.03091 -23.2147
lclavicle -4.72859e-014 -1.23246e-014
lhumerus -33.0205 7.83934 -14.273
lradius 19.6317
lwrist 11.1066
lhand -24.0519 7.42618
lfingers 7.12502
lthumb 2.4272 37.3921
rfemur -2.22714 16.3803 14.5109
rtibia 30.7096
rfoot -27.5691 -16.5054
rtoes -15.8869
lfemur -1.22517 -7.4769 -25.597
ltibia 31.3624
lfoot -22.8786 8.04032
ltoes -15.2338
3474
root 3.03172 17.5683 -1.66443 -40.301 -82.3537 393.447
lowerback 10.3097 -1.47483 -4.29087
upperback 1.47595 -2.6546 -2.81851
thorax -4.18294 -1.30405 -0.157554
lowerneck 1.44176 3.36368 -2.67718
upperneck 9.4621 4.2985 1.07265
head 2.66524 2.00764 0.872658
rclavicle 2.95195e-014 2.66371e-014
rhumerus -27.7638 -3.64597 -6.8952
rradius 19.6875
rwrist 3.08708
rhand -21.3733 6.85261
rfingers 7.12502
rthumb 5.01389 -23.0681
lclavicle 2.95195e-014 2.66371e-014
lhumerus -33.023 7.63586 -14.0648
lradius 19.6957
lwrist 11.4075
lhand -23.5508 7.65393
lfingers 7.12502
lthumb 2.91113 37.6138
rfemur -2.25498 16.2024 14.484
rtibia 30.7157
rfoot -27.5271 -16.4154
rtoes -16.0032
lfemur -1.22319 -7.50854 -25.5889
ltibia 31.3808
lfoot -22.853 8.12268
ltoes -15.1583
3475
root 3.02944 17.5666 -1.6718 -40.6095 -82.3888 393.736
lowerback 10.3582 -1.4595 -4.26359
upperback 1.45326 -2.63666 -2.83907
thorax -4.2364 -1.2946 -0.194709
lowerneck 1.47356 3.34328 -2.63478
upperneck 9.51134 4.26763 1.07653
head 2.67739 1.99255 0.86632
rclavicle 2.15712e-014 2.34566e-014
rhumerus -27.6066 -4.36225 -6.6985
rradius 19.3734
rwrist 3.97089
rhand -21.26 7.061
rfingers 7.12502
rthumb 5.12328 -22.8571
lclavicle 2.15712e-014 2.34566e-014
lhumerus -33.0321 7.60213 -13.8651
lradius 19.7269
lwrist 11.4194
lhand -23.0743 7.79713
lfingers 7.12502
lthumb 3.37132 37.7502
rfemur -2.2354 16.169 14.4863
rtibia 30.7169
rfoot -27.5469 -16.4195
rtoes -15.8835
lfemur -1.20251 -7.45083 -25.576
ltibia 31.4008
lfoot -22.8529 8.14299
ltoes -15.2725
3476
root 3.02446 17.5658 -1.67843 -40.7921 -82.4225 393.937
lowerback 10.34 -1.44315 -4.20082
upperback 1.41489 -2.60973 -2.86949
thorax -4.27134 -1.28135 -0.265029
lowerneck 1.53442 3.29477 -2.51992
upperneck 9.58984 4.20159 1.00859
head 2.69769 1.95949 0.82402
rclavicle -7.77434e-015 1.19271e-014
rhumerus -27.5308 -4.6438 -6.67049
rradius 19.1283
rwrist 4.4291
rhand -21.2028 7.17401
rfingers 7.12502
rthumb 5.17855 -22.7427
lclavicle -7.77434e-015 1.19271e-014
lhumerus -32.9768 7.57406 -13.5902
lradius 19.7438
lwrist 11.5019
lhand -22.6548 7.98881
lfingers 7.12502
lthumb 3.77643 37.9351
rfemur -2.25961 16.1168 14.494
rtibia 30.7219
rfoot -27.4967 -16.4404
rtoes -15.9611
lfemur -1.19787 -7.524 -25.579
ltibia 31.4157
lfoot -22.888 8.27709
ltoes -15.3291
3477
root 3.01898 17.5654 -1.68543 -40.936 -82.4488 394.08
lowerback 10.2964 -1.43204 -4.11785
upperback 1.42117 -2.58523 -2.91118
thorax -4.24669 -1.27166 -0.359448
lowerneck 1.54651 3.26759 -2.44911
upperneck 9.63395 4.16492 0.979838
head 2.71299 1.94184 0.802706
rclavicle 3.22264e-014 5.1684e-015
rhumerus -27.4207 -5.30043 -6.60746
rradius 18.8702
rwrist 5.1989
rhand -20.9171 7.11256
rfingers 7.12502
rthumb 5.45435 -22.7973
lclavicle 3.22264e-014 5.1684e-015
lhumerus -32.8914 7.49758 -13.2293
lradius 19.7529
lwrist 11.6825
lhand -22.3441 8.11811
lfingers 7.12502
lthumb 4.07654 38.0589
rfemur -2.24753 16.1342 14.5183
rtibia 30.7284
rfoot -27.5517 -16.4712
rtoes -15.8627
lfemur -1.18484 -7.50718 -25.5474
ltibia 31.426
lfoot -22.9015 8.27457
ltoes -15.2663
3478
root 3.01257 17.5649 -1.69313 -41.1497 -82.4709 394.301
lowerback 10.2721 -1.43069 -4.08166
upperback 1.38421 -2.58009 -2.93067
thorax -4.27449 -1.26882 -0.400826
lowerneck 1.6243 3.25683 -2.43131
upperneck 9.68494 4.14347 1.00361
head 2.71627 1.93075 0.805993
rclavicle -3.28849e-014 -1.23246e-014
rhumerus -27.236 -5.61796 -6.63767
rradius 18.6151
rwrist 5.60978
rhand -20.6602 7.04335
rfingers 7.12502
rthumb 5.70246 -22.8599
lclavicle -3.28849e-014 -1.23246e-014
lhumerus -32.8797 7.29823 -12.7904
lradius 19.7589
lwrist 12.0228
lhand -22.2062 8.13678
lfingers 7.12502
lthumb 4.20968 38.0749
rfemur -2.25107 16.1131 14.5291
rtibia 30.7401
rfoot -27.5928 -16.491
rtoes -16.0249
lfemur -1.15667 -7.55006 -25.549
ltibia 31.4183
lfoot -22.8676 8.35361
ltoes -15.2598
3479
root 3.00761 17.5636 -1.69998 -41.3079 -82.4972 394.459
lowerback 10.2561 -1.43784 -4.03651
upperback 1.35794 -2.58444 -2.93588
thorax -4.29519 -1.2709 -0.430994
lowerneck 1.66573 3.25307 -2.43919
upperneck 9.75139 4.13448 1.00583
head 2.73112 1.92421 0.808027
rclavicle 1.3053e-015 -3.18055e-015
rhumerus -27.0048 -5.8902 -6.71254
rradius 18.3809
rwrist 5.87803
rhand -20.31 6.9109
rfingers 7.12502
rthumb 6.04055 -22.983
lclavicle 1.3053e-015 -3.18055e-015
lhumerus -32.888 7.09059 -12.2851
lradius 19.7511
lwrist 12.3909
lhand -22.2681 8.07027
lfingers 7.12502
lthumb 4.14985 38.0096
rfemur -2.24148 16.1125 14.5555
rtibia 30.7416
rfoot -27.5786 -16.5267
rtoes -15.92
lfemur -1.13034 -7.53042 -25.5303
ltibia 31.4148
lfoot -22.882 8.39236
ltoes -15.3778
3480
root 3.00144 17.5652 -1.70718 -41.508 -82.5397 394.722
lowerback 10.1521 -1.41962 -3.99893
upperback 1.32361 -2.54928 -2.92603
thorax -4.27495 -1.25352 -0.449042
lowerneck 1.73262 3.21588 -2.41521
upperneck 9.78422 4.08503 0.94462
head 2.73266 1.89734 0.782645
rclavicle -6.91476e-016 1.98785e-015
rhumerus -26.8464 -5.92161 -6.84649
rradius 18.2505
rwrist 5.82266
rhand -19.9375 6.6507
rfingers 7.12502
rthumb 6.40015 -23.2326
lclavicle -6.91476e-016 1.98785e-015
lhumerus -32.8443 6.96721 -11.7267
lradius 19.7468
lwrist 12.8223
lhand -22.3449 7.89324
lfingers 7.12502
lthumb 4.07575 37.834
rfemur -2.30686 16.1069 14.5551
rtibia 30.7481
rfoot -27.5945 -16.4947
rtoes -15.7913
lfemur -1.16533 -7.5576 -25.5122
ltibia 31.3983
lfoot -22.8772 8.47371
ltoes -15.5113
3481
root 2.99424 17.5654 -1.71442 -41.5738 -82.5881 394.807
lowerback 10.0703 -1.41514 -3.89421
upperback 1.31429 -2.52887 -2.96285
thorax -4.24568 -1.24585 -0.550828
lowerneck 1.75788 3.19743 -2.34217
upperneck 9.83618 4.05699 0.946339
head 2.74743 1.88474 0.770635
rclavicle 2.98609e-014 7.95139e-016
rhumerus -26.6853 -5.38545 -7.24388
rradius 18.1359
rwrist 5.04186
rhand -19.6739 6.43189
rfingers 7.12502
rthumb 6.65461 -23.4435
lclavicle 2.98609e-014 7.95139e-016
lhumerus -32.7819 6.47112 -11.0558
lradius 19.7619
lwrist 13.6542
lhand -22.5803 7.60048
lfingers 7.12502
lthumb 3.84841 37.5455
rfemur -2.30351 16.1689 14.616
rtibia 30.7361
rfoot -27.627 -16.577
rtoes -15.9786
lfemur -1.15111 -7.58981 -25.4731
ltibia 31.3934
lfoot -22.9126 8.52687
ltoes -15.5037
3482
root 2.9877 17.5656 -1.72121 -41.8513 -82.6175 395.142
lowerback 9.99641 -1.422 -3.85879
upperback 1.24501 -2.53154 -2.96836
thorax -4.27866 -1.24604 -0.577208
lowerneck 1.87635 3.20043 -2.35189
upperneck 9.8756 4.05459 0.942768
head 2.73916 1.88113 0.769082
rclavicle -6.05439e-015 -1.47101e-014
rhumerus -26.463 -4.60642 -7.67737
rradius 18.0803
rwrist 4.12934
rhand -19.3692 6.06765
rfingers 7.12502
rthumb 6.94874 -23.7983
lclavicle -6.05439e-015 -1.47101e-014
lhumerus -32.7554 6.56263 -10.6215
lradius 19.7061
lwrist 13.7445
lhand -22.8406 7.21311
lfingers 7.12502
lthumb 3.59699 37.1625
rfemur -2.34166 16.2514 14.623
rtibia 30.723
rfoot -27.6725 -16.629
rtoes -15.99
lfemur -1.16963 -7.64793 -25.4769
ltibia 31.3779
lfoot -22.9406 8.61357
ltoes -15.564
